<mxfile host="app.diagrams.net" agent="Mozilla/5.0 (X11; Linux x86_64) AppleWebKit/537.36 (KHTML, like Gecko) Chrome/128.0.0.0 Safari/537.36" version="24.7.8">
  <diagram name="PÃ¡gina-1" id="NEZRjjcqTHKuxv8dkPgv">
    <mxGraphModel dx="2261" dy="820" grid="1" gridSize="10" guides="1" tooltips="1" connect="1" arrows="1" fold="1" page="1" pageScale="1" pageWidth="827" pageHeight="1169" math="0" shadow="0">
      <root>
        <mxCell id="0" />
        <mxCell id="1" parent="0" />
        <mxCell id="0oZY_KW9BEvNogozz79--64" value="" style="rounded=0;whiteSpace=wrap;html=1;strokeColor=#d6b656;fillColor=#fff2cc;" vertex="1" parent="1">
          <mxGeometry x="-80" y="610" width="780" height="520" as="geometry" />
        </mxCell>
        <mxCell id="0oZY_KW9BEvNogozz79--63" value="" style="rounded=0;whiteSpace=wrap;html=1;strokeColor=#6c8ebf;fillColor=#dae8fc;" vertex="1" parent="1">
          <mxGeometry x="30" y="650" width="650" height="460" as="geometry" />
        </mxCell>
        <mxCell id="0oZY_KW9BEvNogozz79--1" value="Public subnet" style="points=[[0,0],[0.25,0],[0.5,0],[0.75,0],[1,0],[1,0.25],[1,0.5],[1,0.75],[1,1],[0.75,1],[0.5,1],[0.25,1],[0,1],[0,0.75],[0,0.5],[0,0.25]];outlineConnect=0;gradientColor=none;html=1;whiteSpace=wrap;fontSize=12;fontStyle=0;container=0;pointerEvents=0;collapsible=0;recursiveResize=0;shape=mxgraph.aws4.group;grIcon=mxgraph.aws4.group_security_group;grStroke=0;strokeColor=#7AA116;fillColor=#F2F6E8;verticalAlign=top;align=left;spacingLeft=30;fontColor=#248814;dashed=0;" vertex="1" parent="1">
          <mxGeometry x="60" y="700" width="150" height="380" as="geometry" />
        </mxCell>
        <mxCell id="0oZY_KW9BEvNogozz79--3" value="" style="shape=image;html=1;verticalAlign=top;verticalLabelPosition=bottom;labelBackgroundColor=#ffffff;imageAspect=0;aspect=fixed;image=https://cdn1.iconfinder.com/data/icons/unicons-line-vol-3/24/docker-128.png;imageBackground=none;" vertex="1" parent="1">
          <mxGeometry x="30" y="650" width="40" height="40" as="geometry" />
        </mxCell>
        <mxCell id="0oZY_KW9BEvNogozz79--4" value="Docker Network" style="text;html=1;align=center;verticalAlign=middle;whiteSpace=wrap;rounded=0;fontColor=#4F42FF;" vertex="1" parent="1">
          <mxGeometry x="55" y="659.12" width="120" height="21.76" as="geometry" />
        </mxCell>
        <mxCell id="0oZY_KW9BEvNogozz79--8" value="Private subnet" style="points=[[0,0],[0.25,0],[0.5,0],[0.75,0],[1,0],[1,0.25],[1,0.5],[1,0.75],[1,1],[0.75,1],[0.5,1],[0.25,1],[0,1],[0,0.75],[0,0.5],[0,0.25]];outlineConnect=0;gradientColor=none;html=1;whiteSpace=wrap;fontSize=12;fontStyle=0;container=1;pointerEvents=0;collapsible=0;recursiveResize=0;shape=mxgraph.aws4.group;grIcon=mxgraph.aws4.group_security_group;grStroke=0;strokeColor=#00A4A6;fillColor=#E6F6F7;verticalAlign=top;align=left;spacingLeft=30;fontColor=#147EBA;dashed=0;" vertex="1" parent="1">
          <mxGeometry x="250" y="700" width="246" height="380" as="geometry" />
        </mxCell>
        <mxCell id="0oZY_KW9BEvNogozz79--31" style="edgeStyle=orthogonalEdgeStyle;rounded=0;orthogonalLoop=1;jettySize=auto;html=1;exitX=0.5;exitY=1;exitDx=0;exitDy=0;entryX=0.5;entryY=0.26;entryDx=0;entryDy=0;entryPerimeter=0;fillColor=#dae8fc;strokeColor=#6c8ebf;" edge="1" parent="0oZY_KW9BEvNogozz79--8" source="0oZY_KW9BEvNogozz79--20" target="0oZY_KW9BEvNogozz79--12">
          <mxGeometry relative="1" as="geometry" />
        </mxCell>
        <mxCell id="0oZY_KW9BEvNogozz79--40" value="auth" style="edgeLabel;html=1;align=center;verticalAlign=middle;resizable=0;points=[];labelBackgroundColor=none;" vertex="1" connectable="0" parent="0oZY_KW9BEvNogozz79--31">
          <mxGeometry x="0.0157" y="-2" relative="1" as="geometry">
            <mxPoint x="18" y="5" as="offset" />
          </mxGeometry>
        </mxCell>
        <mxCell id="0oZY_KW9BEvNogozz79--20" value="&lt;b style=&quot;color: rgb(74, 74, 74);&quot;&gt;Blog Service&lt;/b&gt;" style="image;aspect=fixed;perimeter=ellipsePerimeter;html=1;align=center;shadow=0;dashed=0;fontColor=#4277BB;labelBackgroundColor=none;fontSize=12;spacingTop=3;image=img/lib/ibm/infrastructure/mobile_backend.svg;" vertex="1" parent="0oZY_KW9BEvNogozz79--8">
          <mxGeometry x="139" y="212.5" width="50" height="50" as="geometry" />
        </mxCell>
        <mxCell id="0oZY_KW9BEvNogozz79--12" value="&lt;b&gt;&lt;font color=&quot;#6b6b6b&quot;&gt;KeyCloak&lt;/font&gt;&lt;/b&gt;" style="outlineConnect=0;dashed=0;verticalLabelPosition=bottom;verticalAlign=top;align=center;html=1;shape=mxgraph.aws3.add_on;fillColor=#759C3E;gradientColor=none;" vertex="1" parent="0oZY_KW9BEvNogozz79--8">
          <mxGeometry x="139" y="320" width="49.5" height="27" as="geometry" />
        </mxCell>
        <mxCell id="0oZY_KW9BEvNogozz79--19" value="&lt;b style=&quot;color: rgb(74, 74, 74);&quot;&gt;Frontend&lt;/b&gt;" style="image;aspect=fixed;html=1;points=[];align=center;fontSize=12;image=img/lib/azure2/general/Dashboard.svg;labelBackgroundColor=none;" vertex="1" parent="0oZY_KW9BEvNogozz79--8">
          <mxGeometry x="50" y="171.5" width="52.42" height="37" as="geometry" />
        </mxCell>
        <mxCell id="0oZY_KW9BEvNogozz79--27" style="edgeStyle=orthogonalEdgeStyle;rounded=0;orthogonalLoop=1;jettySize=auto;html=1;entryX=0.5;entryY=0;entryDx=0;entryDy=0;startArrow=classic;startFill=1;fillColor=#dae8fc;strokeColor=#6c8ebf;dashed=1;" edge="1" parent="0oZY_KW9BEvNogozz79--8" source="0oZY_KW9BEvNogozz79--19" target="0oZY_KW9BEvNogozz79--20">
          <mxGeometry relative="1" as="geometry" />
        </mxCell>
        <mxCell id="0oZY_KW9BEvNogozz79--39" style="edgeStyle=orthogonalEdgeStyle;rounded=0;orthogonalLoop=1;jettySize=auto;html=1;exitX=0;exitY=0.75;exitDx=0;exitDy=0;entryX=0.591;entryY=-0.081;entryDx=0;entryDy=0;entryPerimeter=0;fillColor=#dae8fc;strokeColor=#6c8ebf;dashed=1;startArrow=classic;startFill=1;" edge="1" parent="0oZY_KW9BEvNogozz79--8" source="0oZY_KW9BEvNogozz79--18" target="0oZY_KW9BEvNogozz79--19">
          <mxGeometry relative="1" as="geometry" />
        </mxCell>
        <mxCell id="0oZY_KW9BEvNogozz79--18" value="&lt;b style=&quot;color: rgb(74, 74, 74);&quot;&gt;Image Service&lt;/b&gt;" style="image;aspect=fixed;perimeter=ellipsePerimeter;html=1;align=center;shadow=0;dashed=0;fontColor=#4277BB;labelBackgroundColor=none;fontSize=12;spacingTop=3;image=img/lib/ibm/vpc/ImageService.svg;" vertex="1" parent="0oZY_KW9BEvNogozz79--8">
          <mxGeometry x="119" y="70" width="50" height="50" as="geometry" />
        </mxCell>
        <mxCell id="0oZY_KW9BEvNogozz79--54" value="/blog/*" style="edgeLabel;html=1;align=center;verticalAlign=middle;resizable=0;points=[];labelBackgroundColor=none;" vertex="1" connectable="0" parent="0oZY_KW9BEvNogozz79--8">
          <mxGeometry x="30.003333333332932" y="250" as="geometry" />
        </mxCell>
        <mxCell id="0oZY_KW9BEvNogozz79--33" value="" style="group" vertex="1" connectable="0" parent="1">
          <mxGeometry x="530" y="700" width="120" height="380" as="geometry" />
        </mxCell>
        <mxCell id="0oZY_KW9BEvNogozz79--9" value="Data&lt;span style=&quot;background-color: initial;&quot;&gt;&amp;nbsp;subnet&lt;/span&gt;" style="points=[[0,0],[0.25,0],[0.5,0],[0.75,0],[1,0],[1,0.25],[1,0.5],[1,0.75],[1,1],[0.75,1],[0.5,1],[0.25,1],[0,1],[0,0.75],[0,0.5],[0,0.25]];outlineConnect=0;gradientColor=none;html=1;whiteSpace=wrap;fontSize=12;fontStyle=0;container=0;pointerEvents=0;collapsible=0;recursiveResize=0;shape=mxgraph.aws4.group;grIcon=mxgraph.aws4.group_security_group;grStroke=0;strokeColor=#00A4A6;fillColor=#E6F6F7;verticalAlign=top;align=left;spacingLeft=30;fontColor=#147EBA;dashed=0;" vertex="1" parent="0oZY_KW9BEvNogozz79--33">
          <mxGeometry width="120" height="380" as="geometry" />
        </mxCell>
        <mxCell id="0oZY_KW9BEvNogozz79--10" value="" style="outlineConnect=0;dashed=0;verticalLabelPosition=bottom;verticalAlign=top;align=center;html=1;shape=mxgraph.aws3.mysql_db_instance;fillColor=#2E73B8;gradientColor=none;" vertex="1" parent="0oZY_KW9BEvNogozz79--33">
          <mxGeometry x="35" y="151.75" width="50" height="54.5" as="geometry" />
        </mxCell>
        <mxCell id="0oZY_KW9BEvNogozz79--41" value="auth" style="edgeLabel;html=1;align=center;verticalAlign=middle;resizable=0;points=[];labelBackgroundColor=none;" vertex="1" connectable="0" parent="0oZY_KW9BEvNogozz79--33">
          <mxGeometry x="-30.002056848049733" y="269.99504637009954" as="geometry">
            <mxPoint x="105" y="17" as="offset" />
          </mxGeometry>
        </mxCell>
        <mxCell id="0oZY_KW9BEvNogozz79--24" style="edgeStyle=orthogonalEdgeStyle;rounded=0;orthogonalLoop=1;jettySize=auto;html=1;exitX=1;exitY=0.5;exitDx=0;exitDy=0;exitPerimeter=0;entryX=0.5;entryY=0.975;entryDx=0;entryDy=0;entryPerimeter=0;fillColor=#dae8fc;strokeColor=#6c8ebf;startArrow=classic;startFill=1;" edge="1" parent="1" source="0oZY_KW9BEvNogozz79--12" target="0oZY_KW9BEvNogozz79--10">
          <mxGeometry relative="1" as="geometry" />
        </mxCell>
        <mxCell id="0oZY_KW9BEvNogozz79--32" style="edgeStyle=orthogonalEdgeStyle;rounded=0;orthogonalLoop=1;jettySize=auto;html=1;exitX=0;exitY=0.5;exitDx=0;exitDy=0;exitPerimeter=0;entryX=1;entryY=0.5;entryDx=0;entryDy=0;fillColor=#dae8fc;strokeColor=#6c8ebf;startArrow=classic;startFill=1;" edge="1" parent="1" source="0oZY_KW9BEvNogozz79--10" target="0oZY_KW9BEvNogozz79--20">
          <mxGeometry relative="1" as="geometry" />
        </mxCell>
        <mxCell id="0oZY_KW9BEvNogozz79--42" value="blog-data" style="edgeLabel;html=1;align=center;verticalAlign=middle;resizable=0;points=[];labelBackgroundColor=none;" vertex="1" connectable="0" parent="0oZY_KW9BEvNogozz79--32">
          <mxGeometry x="0.44" y="1" relative="1" as="geometry">
            <mxPoint x="-18" y="-16" as="offset" />
          </mxGeometry>
        </mxCell>
        <mxCell id="0oZY_KW9BEvNogozz79--43" style="edgeStyle=orthogonalEdgeStyle;rounded=0;orthogonalLoop=1;jettySize=auto;html=1;exitX=1;exitY=0.5;exitDx=0;exitDy=0;exitPerimeter=0;entryX=-0.057;entryY=0.486;entryDx=0;entryDy=0;entryPerimeter=0;fillColor=#fff2cc;strokeColor=#d6b656;startArrow=classic;startFill=1;" edge="1" parent="1" source="0oZY_KW9BEvNogozz79--7" target="0oZY_KW9BEvNogozz79--19">
          <mxGeometry relative="1" as="geometry" />
        </mxCell>
        <mxCell id="0oZY_KW9BEvNogozz79--53" value="/*" style="edgeLabel;html=1;align=center;verticalAlign=middle;resizable=0;points=[];labelBackgroundColor=none;" vertex="1" connectable="0" parent="0oZY_KW9BEvNogozz79--43">
          <mxGeometry x="0.4618" y="-4" relative="1" as="geometry">
            <mxPoint x="7" y="-14" as="offset" />
          </mxGeometry>
        </mxCell>
        <mxCell id="0oZY_KW9BEvNogozz79--44" style="edgeStyle=orthogonalEdgeStyle;rounded=0;orthogonalLoop=1;jettySize=auto;html=1;exitX=1;exitY=0.5;exitDx=0;exitDy=0;exitPerimeter=0;entryX=0;entryY=0.5;entryDx=0;entryDy=0;fillColor=#fff2cc;strokeColor=#d6b656;startArrow=classic;startFill=1;" edge="1" parent="1" source="0oZY_KW9BEvNogozz79--7" target="0oZY_KW9BEvNogozz79--18">
          <mxGeometry relative="1" as="geometry">
            <Array as="points">
              <mxPoint x="190" y="890" />
              <mxPoint x="190" y="795" />
            </Array>
          </mxGeometry>
        </mxCell>
        <mxCell id="0oZY_KW9BEvNogozz79--52" value="/static/*" style="edgeLabel;html=1;align=center;verticalAlign=middle;resizable=0;points=[];labelBackgroundColor=none;" vertex="1" connectable="0" parent="0oZY_KW9BEvNogozz79--44">
          <mxGeometry x="0.2875" y="2" relative="1" as="geometry">
            <mxPoint x="16" y="-13" as="offset" />
          </mxGeometry>
        </mxCell>
        <mxCell id="0oZY_KW9BEvNogozz79--45" style="edgeStyle=orthogonalEdgeStyle;rounded=0;orthogonalLoop=1;jettySize=auto;html=1;exitX=1;exitY=0.5;exitDx=0;exitDy=0;exitPerimeter=0;entryX=0;entryY=0.5;entryDx=0;entryDy=0;fillColor=#fff2cc;strokeColor=#d6b656;startArrow=classic;startFill=1;" edge="1" parent="1" source="0oZY_KW9BEvNogozz79--7" target="0oZY_KW9BEvNogozz79--20">
          <mxGeometry relative="1" as="geometry">
            <Array as="points">
              <mxPoint x="190" y="890" />
              <mxPoint x="190" y="938" />
              <mxPoint x="389" y="938" />
            </Array>
          </mxGeometry>
        </mxCell>
        <mxCell id="0oZY_KW9BEvNogozz79--47" value="&lt;b&gt;&lt;font color=&quot;#6b6b6b&quot;&gt;User&lt;/font&gt;&lt;/b&gt;" style="aspect=fixed;sketch=0;html=1;dashed=0;whitespace=wrap;verticalLabelPosition=bottom;verticalAlign=top;fillColor=#2875E2;strokeColor=#ffffff;points=[[0.005,0.63,0],[0.1,0.2,0],[0.9,0.2,0],[0.5,0,0],[0.995,0.63,0],[0.72,0.99,0],[0.5,1,0],[0.28,0.99,0]];shape=mxgraph.kubernetes.icon2;prIcon=user" vertex="1" parent="1">
          <mxGeometry x="-240" y="860" width="50" height="48" as="geometry" />
        </mxCell>
        <mxCell id="0oZY_KW9BEvNogozz79--51" style="edgeStyle=orthogonalEdgeStyle;rounded=0;orthogonalLoop=1;jettySize=auto;html=1;exitX=0.995;exitY=0.63;exitDx=0;exitDy=0;exitPerimeter=0;entryX=0;entryY=0.5;entryDx=0;entryDy=0;entryPerimeter=0;fillColor=#d5e8d4;strokeColor=#82b366;startArrow=classic;startFill=1;" edge="1" parent="1" source="0oZY_KW9BEvNogozz79--47" target="0oZY_KW9BEvNogozz79--7">
          <mxGeometry relative="1" as="geometry" />
        </mxCell>
        <mxCell id="0oZY_KW9BEvNogozz79--55" value="https://domain.ex/*" style="edgeLabel;html=1;align=center;verticalAlign=middle;resizable=0;points=[];" vertex="1" connectable="0" parent="0oZY_KW9BEvNogozz79--51">
          <mxGeometry x="-0.3709" y="-2" relative="1" as="geometry">
            <mxPoint x="-40" y="-13" as="offset" />
          </mxGeometry>
        </mxCell>
        <mxCell id="0oZY_KW9BEvNogozz79--7" value="&lt;b style=&quot;&quot;&gt;&lt;font color=&quot;#6b6b6b&quot;&gt;Nginx&lt;/font&gt;&lt;/b&gt;" style="outlineConnect=0;dashed=0;verticalLabelPosition=bottom;verticalAlign=top;align=center;html=1;shape=mxgraph.aws3.classic_load_balancer;fillColor=#F58534;gradientColor=none;" vertex="1" parent="1">
          <mxGeometry x="128.87" y="867.5" width="42.25" height="45" as="geometry" />
        </mxCell>
        <mxCell id="0oZY_KW9BEvNogozz79--57" value="&lt;b style=&quot;color: rgb(107, 107, 107);&quot;&gt;ssl/tls&lt;/b&gt;" style="outlineConnect=0;dashed=0;verticalLabelPosition=bottom;verticalAlign=top;align=center;html=1;shape=mxgraph.aws3.ssl_padlock;fillColor=#D2D3D3;gradientColor=none;" vertex="1" parent="1">
          <mxGeometry x="70" y="870" width="20" height="28" as="geometry" />
        </mxCell>
        <mxCell id="0oZY_KW9BEvNogozz79--65" value="" style="shape=image;html=1;verticalAlign=top;verticalLabelPosition=bottom;labelBackgroundColor=#ffffff;imageAspect=0;aspect=fixed;image=https://cdn1.iconfinder.com/data/icons/operating-system-flat-1/30/ubuntu-128.png" vertex="1" parent="1">
          <mxGeometry x="-80" y="611" width="38" height="38" as="geometry" />
        </mxCell>
        <mxCell id="0oZY_KW9BEvNogozz79--66" value="&lt;font color=&quot;#ff7d19&quot;&gt;Host&lt;/font&gt;" style="text;html=1;align=center;verticalAlign=middle;whiteSpace=wrap;rounded=0;" vertex="1" parent="1">
          <mxGeometry x="-50" y="620" width="45" height="20" as="geometry" />
        </mxCell>
        <mxCell id="0oZY_KW9BEvNogozz79--70" value="&lt;font color=&quot;#6b6b6b&quot;&gt;&lt;span style=&quot;&quot;&gt;&lt;b&gt;ufw firewall&lt;/b&gt;&lt;/span&gt;&lt;/font&gt;&lt;div&gt;&lt;font color=&quot;#6b6b6b&quot;&gt;&lt;span style=&quot;&quot;&gt;&lt;b&gt;fail2ban&lt;/b&gt;&lt;/span&gt;&lt;/font&gt;&lt;/div&gt;&lt;div&gt;&lt;font color=&quot;#6b6b6b&quot;&gt;&lt;span style=&quot;&quot;&gt;&lt;b&gt;apparmor&lt;/b&gt;&lt;/span&gt;&lt;/font&gt;&lt;/div&gt;" style="image;html=1;image=img/lib/clip_art/networking/Firewall_128x128.png;labelBackgroundColor=none;" vertex="1" parent="1">
          <mxGeometry x="-50" y="858" width="50" height="50" as="geometry" />
        </mxCell>
      </root>
    </mxGraphModel>
  </diagram>
</mxfile>
